<svg width="30" height="30" viewBox="0 0 30 30" fill="none" xmlns="http://www.w3.org/2000/svg">
<path d="M12.8745 9.34272L17.4643 26.5545C17.6634 27.2879 18.145 27.9126 18.8038 28.2917C19.4625 28.6708 20.2446 28.7733 20.9788 28.5768L26.529 27.1422C27.2631 26.9441 27.8886 26.4627 28.2678 25.8036C28.6471 25.1446 28.7491 24.3619 28.5514 23.6276L23.3592 4.12102C23.1611 3.38688 22.6797 2.76142 22.0206 2.38218C21.3616 2.00293 20.5789 1.90094 19.8446 2.09862L14.3092 3.57602C13.7112 3.73952 13.1838 4.09156 12.8023 4.58059M10.0066 2.40061H4.26938C3.50888 2.40139 2.77972 2.70374 2.24182 3.24136C1.70392 3.77899 1.40119 4.50799 1.40002 5.26849V25.3496C1.40002 26.933 2.68446 28.2175 4.26938 28.2175H10.0066C10.7669 28.2163 11.4957 27.9138 12.0332 27.3762C12.5708 26.8386 12.8733 26.1098 12.8745 25.3496V5.26849C12.8733 4.50824 12.5708 3.77946 12.0332 3.24188C11.4957 2.7043 10.7669 2.40178 10.0066 2.40061ZM7.13727 23.2609C7.72462 23.2609 8.28792 23.0276 8.70324 22.6122C9.11857 22.1969 9.35189 21.6336 9.35189 21.0463C9.35189 20.4589 9.11857 19.8956 8.70324 19.4803C8.28792 19.065 7.72462 18.8316 7.13727 18.8316C6.54992 18.8316 5.98662 19.065 5.5713 19.4803C5.15598 19.8956 4.92265 20.4589 4.92265 21.0463C4.92265 21.6336 5.15598 22.1969 5.5713 22.6122C5.98662 23.0276 6.54992 23.2609 7.13727 23.2609ZM21.8965 23.0577C22.4833 23.0577 23.046 22.8246 23.4609 22.4097C23.8758 21.9948 24.1089 21.432 24.1089 20.8452C24.1089 20.2585 23.8758 19.6957 23.4609 19.2808C23.046 18.8659 22.4833 18.6328 21.8965 18.6328C21.3097 18.6328 20.747 18.8659 20.3321 19.2808C19.9172 19.6957 19.6841 20.2585 19.6841 20.8452C19.6841 21.432 19.9172 21.9948 20.3321 22.4097C20.747 22.8246 21.3097 23.0577 21.8965 23.0577Z" stroke="#F5F5F5" stroke-width="2.5" stroke-linecap="round" stroke-linejoin="round"/>
</svg>
