<svg width="30" height="30" viewBox="0 0 30 30" fill="none" xmlns="http://www.w3.org/2000/svg">
<path d="M17.7 11.1001H23.1M17.7 15.8251H21.75" stroke="#565656" stroke-width="2.75" stroke-linecap="round" stroke-linejoin="round"/>
<path d="M21.75 3H8.25C4.52208 3 1.5 6.02208 1.5 9.75V20.55C1.5 24.2779 4.52208 27.3 8.25 27.3H21.75C25.4779 27.3 28.5 24.2779 28.5 20.55V9.75C28.5 6.02208 25.4779 3 21.75 3Z" stroke="#565656" stroke-width="2.75" stroke-linecap="round" stroke-linejoin="round"/>
<path d="M5.55 20.5499C7.1808 17.0656 13.2612 16.8374 15 20.5499M12.975 11.0999C12.975 11.816 12.6905 12.5027 12.1842 13.0091C11.6778 13.5154 10.9911 13.7999 10.275 13.7999C9.55892 13.7999 8.87216 13.5154 8.36581 13.0091C7.85947 12.5027 7.575 11.816 7.575 11.0999C7.575 10.3838 7.85947 9.69706 8.36581 9.19071C8.87216 8.68437 9.55892 8.3999 10.275 8.3999C10.9911 8.3999 11.6778 8.68437 12.1842 9.19071C12.6905 9.69706 12.975 10.3838 12.975 11.0999Z" stroke="#565656" stroke-width="2.75" stroke-linecap="round" stroke-linejoin="round"/>
</svg>
