<svg width="30" height="30" viewBox="0 0 30 30" fill="none" xmlns="http://www.w3.org/2000/svg">
<path d="M21 19.5C19.75 19.5 18.6875 19.0625 17.8125 18.1875C16.9375 17.3125 16.5 16.25 16.5 15C16.5 13.75 16.9375 12.6875 17.8125 11.8125C18.6875 10.9375 19.75 10.5 21 10.5C22.25 10.5 23.3125 10.9375 24.1875 11.8125C25.0625 12.6875 25.5 13.75 25.5 15C25.5 16.25 25.0625 17.3125 24.1875 18.1875C23.3125 19.0625 22.25 19.5 21 19.5ZM21 16.5C21.425 16.5 21.7815 16.356 22.0695 16.068C22.3575 15.78 22.501 15.424 22.5 15C22.499 14.576 22.355 14.22 22.068 13.932C21.781 13.644 21.425 13.5 21 13.5C20.575 13.5 20.219 13.644 19.932 13.932C19.645 14.22 19.501 14.576 19.5 15C19.499 15.424 19.643 15.7805 19.932 16.0695C20.221 16.3585 20.577 16.502 21 16.5ZM12 30V25.65C12 25.125 12.125 24.6315 12.375 24.1695C12.625 23.7075 12.975 23.3385 13.425 23.0625C14.225 22.5875 15.069 22.1935 15.957 21.8805C16.845 21.5675 17.751 21.3365 18.675 21.1875L21 24L23.325 21.1875C24.25 21.3375 25.15 21.569 26.025 21.882C26.9 22.195 27.7375 22.5885 28.5375 23.0625C28.9875 23.3375 29.344 23.7065 29.607 24.1695C29.87 24.6325 30.001 25.126 30 25.65V30H12ZM14.9625 27H19.575L17.55 24.525C17.1 24.65 16.6625 24.8125 16.2375 25.0125C15.8125 25.2125 15.3875 25.425 14.9625 25.65V27ZM22.425 27H27V25.65C26.6 25.4 26.1875 25.1815 25.7625 24.9945C25.3375 24.8075 24.9 24.651 24.45 24.525L22.425 27ZM3 27C2.175 27 1.4685 26.7065 0.880502 26.1195C0.292502 25.5325 -0.000997453 24.826 2.54669e-06 24V3C2.54669e-06 2.175 0.294003 1.469 0.882002 0.882C1.47 0.295 2.176 0.001 3 0H24C24.825 0 25.5315 0.294 26.1195 0.882C26.7075 1.47 27.001 2.176 27 3V10.5C26.6 10 26.1625 9.525 25.6875 9.075C25.2125 8.625 24.65 8.325 24 8.175V3H3V24H9.225C9.15 24.275 9.094 24.55 9.057 24.825C9.02 25.1 9.001 25.375 9 25.65V27H3ZM6 9H16.5C17.15 8.5 17.8625 8.125 18.6375 7.875C19.4125 7.625 20.2 7.5 21 7.5V6H6V9ZM6 15H13.5C13.5 14.475 13.556 13.9625 13.668 13.4625C13.78 12.9625 13.9365 12.475 14.1375 12H6V15ZM6 21H11.175C11.45 20.775 11.744 20.575 12.057 20.4C12.37 20.225 12.6885 20.0625 13.0125 19.9125V18H6V21ZM3 24V3V8.1375V7.5V24Z" fill="#565656"/>
</svg>
