<svg width="15" height="15" viewBox="0 0 15 15" fill="none" xmlns="http://www.w3.org/2000/svg">
<path fill-rule="evenodd" clip-rule="evenodd" d="M7.5 0.5C7.72278 0.5 7.93644 0.5885 8.09397 0.74603C8.2515 0.903561 8.34 1.11722 8.34 1.34V6.66H13.66C13.8828 6.66 14.0964 6.7485 14.254 6.90603C14.4115 7.06356 14.5 7.27722 14.5 7.5C14.5 7.72278 14.4115 7.93644 14.254 8.09397C14.0964 8.2515 13.8828 8.34 13.66 8.34H8.34V13.66C8.34 13.8828 8.2515 14.0964 8.09397 14.254C7.93644 14.4115 7.72278 14.5 7.5 14.5C7.27722 14.5 7.06356 14.4115 6.90603 14.254C6.7485 14.0964 6.66 13.8828 6.66 13.66V8.34H1.34C1.11722 8.34 0.903561 8.2515 0.74603 8.09397C0.5885 7.93644 0.5 7.72278 0.5 7.5C0.5 7.27722 0.5885 7.06356 0.74603 6.90603C0.903561 6.7485 1.11722 6.66 1.34 6.66H6.66V1.34C6.66 1.11722 6.7485 0.903561 6.90603 0.74603C7.06356 0.5885 7.27722 0.5 7.5 0.5Z" fill="#F5F5F5" stroke="#F5F5F5" stroke-width="0.75"/>
</svg>
