<svg width="30" height="30" viewBox="0 0 30 30" fill="none" xmlns="http://www.w3.org/2000/svg">
<path d="M28.5 17.8636H22.7727C21.4708 17.8636 20.2221 18.3808 19.3015 19.3015C18.3808 20.2221 17.8636 21.4708 17.8636 22.7727V28.5M8.04545 8.04545H20.3182M8.04545 14.5909H16.2273M21.9545 1.5H8.04545C6.30949 1.5 4.64463 2.18961 3.41712 3.41712C2.18961 4.64463 1.5 6.30949 1.5 8.04545V21.9545C1.5 23.6905 2.18961 25.3554 3.41712 26.5829C4.64463 27.8104 6.30949 28.5 8.04545 28.5H19.2431C20.1029 28.5 20.9542 28.3307 21.7485 28.0016C22.5428 27.6725 23.2645 27.1902 23.8724 26.5822L26.5822 23.8724C27.1902 23.2645 27.6725 22.5428 28.0016 21.7485C28.3307 20.9542 28.5 20.1029 28.5 19.2431V8.04545C28.5 6.30949 27.8104 4.64463 26.5829 3.41712C25.3554 2.18961 23.6905 1.5 21.9545 1.5Z" stroke="#F5F5F5" stroke-width="3" stroke-linecap="round" stroke-linejoin="round"/>
</svg>
