<svg width="128" height="164" viewBox="0 0 128 164" fill="none" xmlns="http://www.w3.org/2000/svg">
<path d="M85.8238 55.1663C87.4427 54.3984 89.212 54 91.0038 54C92.7956 54 94.5649 54.3984 96.1838 55.1663L126.24 69.4051C126.764 69.6529 127.207 70.0432 127.519 70.5313C127.831 71.0193 127.999 71.5854 128.004 72.1646C128.009 72.7439 127.851 73.3129 127.548 73.8064C127.245 74.2999 126.809 74.698 126.289 74.9551L96.3811 89.7921C94.7101 90.6222 92.8696 91.0542 91.0038 91.0542C89.138 91.0542 87.2975 90.6222 85.6265 89.7921L60.1705 77.1628V91.0008C60.1705 91.8185 59.8456 92.6028 59.2674 93.181C58.6891 93.7593 57.9049 94.0841 57.0871 94.0841C56.2694 94.0841 55.4851 93.7593 54.9069 93.181C54.3287 92.6028 54.0038 91.8185 54.0038 91.0008V72.3466C53.9735 71.7368 54.1249 71.1317 54.4389 70.608C54.7529 70.0843 55.2153 69.6657 55.7675 69.4051L85.8238 55.1663ZM66.3371 87.1096V97.1674C66.3372 97.573 66.4173 97.9746 66.5729 98.3492C66.7284 98.7238 66.9564 99.0641 67.2436 99.3504L67.256 99.3689L67.3978 99.4984L67.7678 99.8438C68.0761 100.132 68.5222 100.516 69.106 100.997C70.2591 101.94 71.9241 103.186 74.0023 104.438C78.134 106.911 84.0786 109.501 91.0038 109.501C97.929 109.501 103.88 106.911 108.005 104.438C110.225 103.105 112.314 101.567 114.246 99.8438L114.616 99.4984L114.758 99.3566L114.77 99.3504C115.056 99.0636 115.283 98.7231 115.438 98.3485C115.592 97.974 115.671 97.5726 115.67 97.1674V87.1034L99.1191 95.3174C96.597 96.5693 93.8195 97.2207 91.0038 97.2207C88.1881 97.2207 85.4106 96.5693 82.8885 95.3174L66.3371 87.1096Z" fill="#134713"/>
<path fill-rule="evenodd" clip-rule="evenodd" d="M96 12.145C96 5.81572 91.4371 0.29398 85.1122 0.0579689C84.0796 0.0194372 83.042 0 82 0C36.7127 0 0 36.7127 0 82C0 127.287 36.7127 164 82 164C83.042 164 84.0796 163.981 85.1122 163.942C91.4371 163.706 96 158.184 96 151.855V119.173C94.3943 119.383 92.7266 119.501 91.0038 119.501C81.6158 119.501 73.8719 116.014 68.8668 113.019L68.8546 113.011L68.8424 113.004C66.2851 111.463 64.2292 109.927 62.7736 108.737L62.7603 108.726L62.747 108.715C62.1075 108.188 61.4768 107.651 60.9446 107.154L60.6146 106.846L59.6121 105.931L59.2839 105.439C58.9189 104.991 58.5841 104.521 58.2815 104.03C57.886 104.066 57.4875 104.084 57.0871 104.084C53.6173 104.084 50.2894 102.706 47.8358 100.252C45.3822 97.7985 44.0038 94.4707 44.0038 91.0008V72.509C43.9441 70.0349 44.5874 67.5921 45.8624 65.4657C46.9341 63.6783 48.4133 62.1792 50.1705 61.0856V61.0385L50.2127 61.0594C50.6241 60.8056 51.0506 60.5739 51.4905 60.3659L51.4998 60.3615L81.5381 46.1312L81.54 46.1303L81.5425 46.1291C84.4996 44.7272 87.7312 44 91.0038 44C92.6907 44 94.3668 44.1932 96 44.5725V12.145Z" fill="#134713"/>
</svg>
