<svg width="16" height="16" viewBox="0 0 16 16" fill="none" xmlns="http://www.w3.org/2000/svg">
<path fill-rule="evenodd" clip-rule="evenodd" d="M2.27654 2.30034C2.45383 2.12363 2.69416 2.02437 2.94474 2.02437C3.19532 2.02437 3.43565 2.12363 3.61294 2.30034L7.98779 6.66631L12.3626 2.30034C12.4492 2.20763 12.5536 2.13327 12.6696 2.08169C12.7856 2.03012 12.9108 2.00238 13.0377 2.00015C13.1647 1.99791 13.2908 2.02122 13.4086 2.06868C13.5263 2.11614 13.6333 2.18678 13.723 2.27639C13.8128 2.366 13.8836 2.47274 13.9312 2.59024C13.9787 2.70774 14.0021 2.83359 13.9999 2.9603C13.9976 3.087 13.9698 3.21196 13.9181 3.32771C13.8665 3.44347 13.7919 3.54765 13.699 3.63404L9.3242 8L13.699 12.366C13.7919 12.4524 13.8665 12.5565 13.9181 12.6723C13.9698 12.788 13.9976 12.913 13.9999 13.0397C14.0021 13.1664 13.9787 13.2923 13.9312 13.4098C13.8836 13.5273 13.8128 13.634 13.723 13.7236C13.6333 13.8132 13.5263 13.8839 13.4086 13.9313C13.2908 13.9788 13.1647 14.0021 13.0377 13.9999C12.9108 13.9976 12.7856 13.9699 12.6696 13.9183C12.5536 13.8667 12.4492 13.7924 12.3626 13.6997L7.98779 9.33369L3.61294 13.6997C3.4337 13.8663 3.19661 13.9571 2.95165 13.9528C2.70668 13.9485 2.47295 13.8494 2.29971 13.6765C2.12646 13.5036 2.02722 13.2704 2.0229 13.0259C2.01858 12.7814 2.10951 12.5448 2.27654 12.366L6.65138 8L2.27654 3.63404C2.09946 3.4571 2 3.21726 2 2.96719C2 2.71712 2.09946 2.47728 2.27654 2.30034Z" fill="#565656" stroke="#565656" stroke-width="0.75"/>
</svg>
