<svg width="30" height="30" viewBox="0 0 30 30" fill="none" xmlns="http://www.w3.org/2000/svg">
<path fill-rule="evenodd" clip-rule="evenodd" d="M10.1323 6.1852H11.3487L12.2106 5.3233L14.3066 3.22734C14.3975 3.13613 14.5056 3.06377 14.6246 3.01439C14.7436 2.96501 14.8712 2.9396 15 2.9396C15.1288 2.9396 15.2564 2.96501 15.3754 3.01439C15.4944 3.06377 15.6025 3.13613 15.6934 3.22734L17.7894 5.3233L18.6513 6.1852H22.8354C23.0951 6.1852 23.3443 6.28839 23.5279 6.47206C23.7116 6.65574 23.8148 6.90486 23.8148 7.16462V11.3487L24.6767 12.2106L26.7727 14.3066C26.8639 14.3975 26.9362 14.5056 26.9856 14.6246C27.035 14.7436 27.0604 14.8712 27.0604 15C27.0604 15.1288 27.035 15.2564 26.9856 15.3754C26.9362 15.4944 26.8639 15.6025 26.7727 15.6934L24.6767 17.7894L23.8148 18.6513V22.8354C23.8148 23.0951 23.7116 23.3443 23.5279 23.5279C23.3443 23.7116 23.0951 23.8148 22.8354 23.8148H18.6513L17.7894 24.6767L15.6934 26.7727C15.6025 26.8639 15.4944 26.9362 15.3754 26.9856C15.2564 27.035 15.1288 27.0604 15 27.0604C14.8712 27.0604 14.7436 27.035 14.6246 26.9856C14.5056 26.9362 14.3975 26.8639 14.3066 26.7727L12.2106 24.6767L11.3487 23.8148H7.16462C6.90486 23.8148 6.65574 23.7116 6.47206 23.5279C6.28839 23.3443 6.1852 23.0951 6.1852 22.8354V18.6513L5.3233 17.7894L3.22734 15.6934C3.13613 15.6025 3.06377 15.4944 3.01439 15.3754C2.96501 15.2564 2.9396 15.1288 2.9396 15C2.9396 14.8712 2.96501 14.7436 3.01439 14.6246C3.06377 14.5056 3.13613 14.3975 3.22734 14.3066L5.3233 12.2106L6.1852 11.3487V7.16462C6.1852 6.90486 6.28839 6.65574 6.47206 6.47206C6.65574 6.28839 6.90486 6.1852 7.16462 6.1852H10.1323ZM17.7718 1.14901C17.4079 0.784753 16.9758 0.495788 16.5002 0.298634C16.0246 0.101479 15.5148 0 15 0C14.4852 0 13.9754 0.101479 13.4998 0.298634C13.0242 0.495788 12.5921 0.784753 12.2282 1.14901L10.1342 3.24693H7.16462C6.12558 3.24693 5.1291 3.65968 4.39439 4.39439C3.65968 5.1291 3.24693 6.12558 3.24693 7.16462V10.1323L1.14901 12.2282C0.784753 12.5921 0.495788 13.0242 0.298634 13.4998C0.101479 13.9754 0 14.4852 0 15C0 15.5148 0.101479 16.0246 0.298634 16.5002C0.495788 16.9758 0.784753 17.4079 1.14901 17.7718L3.24693 19.8658V22.8354C3.24693 23.8744 3.65968 24.8709 4.39439 25.6056C5.1291 26.3403 6.12558 26.7531 7.16462 26.7531H10.1323L12.2282 28.851C12.5921 29.2152 13.0242 29.5042 13.4998 29.7014C13.9754 29.8985 14.4852 30 15 30C15.5148 30 16.0246 29.8985 16.5002 29.7014C16.9758 29.5042 17.4079 29.2152 17.7718 28.851L19.8658 26.7531H22.8354C23.8744 26.7531 24.8709 26.3403 25.6056 25.6056C26.3403 24.8709 26.7531 23.8744 26.7531 22.8354V19.8677L28.851 17.7718C29.2152 17.4079 29.5042 16.9758 29.7014 16.5002C29.8985 16.0246 30 15.5148 30 15C30 14.4852 29.8985 13.9754 29.7014 13.4998C29.5042 13.0242 29.2152 12.5921 28.851 12.2282L26.7531 10.1342V7.16462C26.7531 6.12558 26.3403 5.1291 25.6056 4.39439C24.8709 3.65968 23.8744 3.24693 22.8354 3.24693H19.8677L17.7718 1.14901ZM21.0724 11.9638C21.1882 11.8094 21.2724 11.6338 21.3203 11.4469C21.3682 11.26 21.3788 11.0655 21.3515 10.8745C21.3242 10.6836 21.2596 10.4998 21.1613 10.3338C21.063 10.1678 20.9329 10.0228 20.7786 9.907C20.6242 9.79124 20.4486 9.70702 20.2617 9.65914C20.0748 9.61126 19.8803 9.60066 19.6893 9.62794C19.4984 9.65523 19.3146 9.71986 19.1486 9.81816C18.9826 9.91645 18.8376 10.0465 18.7218 10.2008L13.8619 16.6807L11.1411 13.9618C10.8626 13.7023 10.4942 13.561 10.1136 13.5677C9.73301 13.5745 9.36987 13.7286 9.1007 13.9978C8.83153 14.267 8.67734 14.6301 8.67063 15.0107C8.66391 15.3913 8.80519 15.7597 9.0647 16.0382L12.9824 19.9559C13.1312 20.1046 13.3102 20.2197 13.5073 20.2933C13.7044 20.3669 13.915 20.3973 14.1249 20.3824C14.3348 20.3676 14.539 20.3078 14.7238 20.2072C14.9085 20.1065 15.0695 19.9674 15.1959 19.7992L21.0724 11.9638Z" fill="#565656"/>
</svg>
