<svg width="30" height="30" viewBox="0 0 30 30" fill="none" xmlns="http://www.w3.org/2000/svg">
<path d="M3.07692 24.8654V3.32692H13.8462V14.0962H24.6154V15.6346C25.6923 15.6346 26.7231 15.8346 27.6923 16.1731V9.48077L18.4615 0.25H3.07692C1.36923 0.25 0 1.61923 0 3.32692V24.8654C0 25.6814 0.324175 26.4641 0.90121 27.0411C1.47824 27.6181 2.26087 27.9423 3.07692 27.9423H15.9231C15.5846 26.9731 15.3846 25.9423 15.3846 24.8654H3.07692ZM16.9231 2.55769L25.3846 11.0192H16.9231V2.55769ZM30 22.1731L22.6923 29.4808L18.4615 24.8654L20.2462 23.0808L22.6923 25.5269L28.2154 20.0038L30 22.1731Z" fill="#565656"/>
</svg>
