<svg width="30" height="30" viewBox="0 0 30 30" fill="none" xmlns="http://www.w3.org/2000/svg">
<path d="M22.695 14.25L24.585 12.36C25.245 11.7 26.085 11.34 27 11.25V9.75L18 0.75H3C1.335 0.75 0 2.085 0 3.75V24.75C0 25.5456 0.31607 26.3087 0.87868 26.8713C1.44129 27.4339 2.20435 27.75 3 27.75H12V24.945L12.195 24.75H3V3.75H13.5V14.25H22.695ZM16.5 3L24.75 11.25H16.5V3ZM24.195 16.995L27.255 20.055L18.06 29.25H15V26.19L24.195 16.995ZM29.775 17.535L28.305 19.005L25.245 15.945L26.715 14.475C27 14.175 27.495 14.175 27.795 14.475L29.775 16.455C30.075 16.755 30.075 17.25 29.775 17.535Z" fill="#F5F5F5"/>
</svg>
