<svg width="15" height="15" viewBox="0 0 15 15" fill="none" xmlns="http://www.w3.org/2000/svg">
<path d="M1.72193e-05 7.59215C1.7226e-05 7.44006 0.0235917 7.29748 0.0707399 7.1644C0.117888 7.03132 0.198878 6.90774 0.313707 6.79368L3.27948 3.8279C3.4886 3.61878 3.74982 3.50965 4.06313 3.50053C4.37643 3.4914 4.64754 3.60053 4.87643 3.8279C5.08556 4.03703 5.19506 4.29862 5.20495 4.61269C5.21483 4.92676 5.11484 5.19748 4.90495 5.42486L3.90685 6.45147L11.0931 6.45147L10.0951 5.42486C9.88593 5.21573 9.78136 4.95452 9.78136 4.64121C9.78136 4.3279 9.89543 4.0568 10.1236 3.8279C10.3327 3.61878 10.5989 3.51422 10.922 3.51422C11.2452 3.51422 11.5114 3.61878 11.7205 3.8279L14.6863 6.79368C14.8004 6.90774 14.881 7.03132 14.9281 7.1644C14.9753 7.29748 14.9992 7.44006 15 7.59215C15.0007 7.74424 14.9768 7.88683 14.9281 8.01991C14.8795 8.15299 14.7988 8.27656 14.6863 8.39063L11.7205 11.3564C11.5114 11.5655 11.2498 11.6747 10.9357 11.6838C10.6217 11.6929 10.3509 11.5838 10.1236 11.3564C9.91444 11.1473 9.80494 10.8861 9.79505 10.5728C9.78517 10.2594 9.88517 9.98835 10.0951 9.75945L11.0931 8.73284L3.90685 8.73284L4.90495 9.75945C5.11407 9.96857 5.21864 10.2302 5.21864 10.5442C5.21864 10.8583 5.10457 11.129 4.87643 11.3564C4.66731 11.5655 4.40115 11.6701 4.07795 11.6701C3.75476 11.6701 3.4886 11.5655 3.27948 11.3564L0.313707 8.39063C0.199638 8.27656 0.118648 8.15299 0.0707398 8.01991C0.0228312 7.88683 -0.000743242 7.74424 1.72193e-05 7.59215Z" fill="#565656"/>
</svg>
