<svg width="30" height="30" viewBox="0 0 30 30" fill="none" xmlns="http://www.w3.org/2000/svg">
<path d="M5 8.66667C5 8.22464 5.17559 7.80072 5.48816 7.48815C5.80072 7.17559 6.22464 7 6.66667 7H23.3333C23.7754 7 24.1993 7.17559 24.5118 7.48815C24.8244 7.80072 25 8.22464 25 8.66667V20.8889C25 21.3309 24.8244 21.7548 24.5118 22.0674C24.1993 22.38 23.7754 22.5556 23.3333 22.5556C22.8913 22.5556 22.4674 22.38 22.1548 22.0674C21.8423 21.7548 21.6667 21.3309 21.6667 20.8889V10.3333H6.66667C6.22464 10.3333 5.80072 10.1577 5.48816 9.84518C5.17559 9.53262 5 9.10869 5 8.66667ZM30 4.77778V24.7778C30 25.5145 29.7073 26.221 29.1864 26.742C28.6655 27.2629 27.9589 27.5556 27.2222 27.5556H17.9528C17.6017 27.5555 17.2595 27.4445 16.9752 27.2385C16.6909 27.0325 16.4789 26.742 16.3694 26.4083C16.0208 25.4403 15.3819 24.6033 14.54 24.0117C13.6981 23.4201 12.6942 23.1027 11.6653 23.1027C10.6363 23.1027 9.63242 23.4201 8.79054 24.0117C7.94866 24.6033 7.30979 25.4403 6.96111 26.4083C6.85183 26.7415 6.64025 27.0317 6.35647 27.2377C6.0727 27.4437 5.7312 27.5549 5.38056 27.5556H2.77778C2.04107 27.5556 1.33453 27.2629 0.813592 26.742C0.292658 26.221 0 25.5145 0 24.7778V4.77778C0 4.04107 0.292658 3.33453 0.813592 2.81359C1.33453 2.29266 2.04107 2 2.77778 2H27.2222C27.9589 2 28.6655 2.29266 29.1864 2.81359C29.7073 3.33453 30 4.04107 30 4.77778ZM11.6667 19.7778C12.1062 19.7778 12.5358 19.6474 12.9013 19.4033C13.2667 19.1591 13.5515 18.812 13.7197 18.406C13.8879 17.9999 13.9319 17.5531 13.8462 17.122C13.7604 16.691 13.5488 16.295 13.238 15.9842C12.9272 15.6734 12.5313 15.4618 12.1002 15.376C11.6691 15.2903 11.2223 15.3343 10.8163 15.5025C10.4102 15.6707 10.0631 15.9555 9.81896 16.321C9.57478 16.6864 9.44444 17.116 9.44444 17.5556C9.44444 18.1449 9.67857 18.7102 10.0953 19.1269C10.5121 19.5436 11.0773 19.7778 11.6667 19.7778ZM26.6667 5.33333H3.33333V24.2222H4.29444C4.99555 22.8987 6.03933 21.7877 7.31667 21.0056C6.66674 20.1874 6.2607 19.2026 6.14517 18.1641C6.02965 17.1257 6.20932 16.0757 6.66355 15.1347C7.11778 14.1938 7.82817 13.4 8.71314 12.8445C9.59811 12.289 10.6218 11.9943 11.6667 11.9943C12.7115 11.9943 13.7352 12.289 14.6202 12.8445C15.5052 13.4 16.2156 14.1938 16.6698 15.1347C17.124 16.0757 17.3037 17.1257 17.1882 18.1641C17.0726 19.2026 16.6666 20.1874 16.0167 21.0056C17.294 21.7877 18.3378 22.8987 19.0389 24.2222H26.6667V5.33333Z" fill="#F5F5F5"/>
</svg>
