<svg width="30" height="30" viewBox="0 0 30 30" fill="none" xmlns="http://www.w3.org/2000/svg">
<path d="M17.7937 8.36686V5.03353C17.7937 4.14947 17.4592 3.30163 16.8638 2.67651C16.2685 2.05138 15.461 1.7002 14.619 1.7002H6.1746C5.33265 1.7002 4.52517 2.05138 3.92982 2.67651C3.33447 3.30163 3 4.14947 3 5.03353V25.0335C3 25.9176 3.33447 26.7654 3.92982 27.3906C4.52517 28.0157 5.33265 28.3669 6.1746 28.3669H14.619C15.461 28.3669 16.2685 28.0157 16.8638 27.3906C17.4592 26.7654 17.7937 25.9176 17.7937 25.0335V21.7002" stroke="#F5F5F5" stroke-width="3" stroke-linecap="round" stroke-linejoin="round"/>
<path d="M7.95239 15.1445H27M27 15.1445L22.2381 10.1445M27 15.1445L22.2381 20.1445" stroke="#F5F5F5" stroke-width="3" stroke-linecap="round" stroke-linejoin="round"/>
</svg>
