<svg width="30" height="30" viewBox="0 0 30 30" fill="none" xmlns="http://www.w3.org/2000/svg">
<path fill-rule="evenodd" clip-rule="evenodd" d="M18.75 17.9375H19.9144L20.7394 18.7625L23.5706 21.5938C23.6179 21.6398 23.678 21.6704 23.743 21.6815C23.808 21.6927 23.8749 21.6839 23.9348 21.6562C23.9947 21.6286 24.0448 21.5835 24.0785 21.5268C24.1123 21.4701 24.128 21.4046 24.1238 21.3388L23.9137 18.6125L23.7975 17.0956L25.0012 16.1675C26.3194 15.155 27.1875 13.6456 27.1875 11.375C27.1875 9.09875 26.3156 7.58938 24.9937 6.575C23.58 5.49125 21.4275 4.8125 18.75 4.8125C16.0725 4.8125 13.92 5.49125 12.5063 6.575C11.1862 7.5875 10.3125 9.09875 10.3125 11.375C10.3125 13.6512 11.1844 15.1606 12.5063 16.175C13.92 17.2588 16.0725 17.9375 18.75 17.9375ZM19.725 21.725L21.5813 23.5813C22.0345 24.0345 22.6158 24.3381 23.2469 24.451C23.8779 24.5639 24.5284 24.4807 25.1107 24.2127C25.693 23.9448 26.1793 23.5048 26.504 22.9521C26.8287 22.3993 26.9763 21.7604 26.9269 21.1213L26.7188 18.3969C28.7437 16.8313 30 14.4931 30 11.375C30 5.12563 24.9637 2 18.75 2C14.7619 2 11.2594 3.28812 9.2625 5.8625C3.99563 6.47 0 9.55625 0 15.125C0 18.2431 1.25438 20.5831 3.28125 22.1469L3.07313 24.8713C3.0237 25.5104 3.17127 26.1493 3.49598 26.7021C3.82069 27.2548 4.30695 27.6948 4.8893 27.9627C5.47164 28.2307 6.12211 28.3139 6.75314 28.201C7.38417 28.0881 7.96546 27.7845 8.41875 27.3313L11.25 24.5C14.6306 24.5 17.6625 23.5756 19.725 21.725ZM7.76813 9.005C7.59063 9.735 7.50125 10.525 7.5 11.375C7.5 16.8219 11.325 19.895 16.4231 20.5963C15.0787 21.2825 13.3219 21.6875 11.25 21.6875H10.0856L9.26062 22.5125L6.42937 25.3438C6.38211 25.3898 6.32201 25.4204 6.257 25.4315C6.19199 25.4427 6.12512 25.4339 6.06522 25.4062C6.00532 25.3786 5.95519 25.3335 5.92146 25.2768C5.88772 25.2201 5.87196 25.1546 5.87625 25.0888L6.08625 22.3625L6.2025 20.8456L4.99875 19.9175C3.68062 18.905 2.8125 17.3956 2.8125 15.125C2.8125 12.8488 3.68438 11.3394 5.00625 10.325C5.73938 9.7625 6.66938 9.31063 7.76813 9.005Z" fill="#565656"/>
</svg>
