<svg width="30" height="30" viewBox="0 0 30 30" fill="none" xmlns="http://www.w3.org/2000/svg">
<path d="M0 5C0 3.89543 0.895431 3 2 3H28C29.1046 3 30 3.89543 30 5V6.65149C30 7.75606 29.1046 8.65149 28 8.65149H2C0.89543 8.65149 0 7.75606 0 6.65149V5ZM0 14.4192C0 13.3146 0.895431 12.4192 2 12.4192H28C29.1046 12.4192 30 13.3146 30 14.4192V16.0706C30 17.1752 29.1046 18.0706 28 18.0706H2C0.89543 18.0706 0 17.1752 0 16.0706V14.4192ZM0 23.8383C0 22.7337 0.895431 21.8383 2 21.8383H28C29.1046 21.8383 30 22.7337 30 23.8383V25.4898C30 26.5944 29.1046 27.4898 28 27.4898H2C0.89543 27.4898 0 26.5944 0 25.4898V23.8383Z" fill="#565656"/>
</svg>
