<svg width="30" height="30" viewBox="0 0 30 30" fill="none" xmlns="http://www.w3.org/2000/svg">
<path fill-rule="evenodd" clip-rule="evenodd" d="M12.8187 6.19155L3.26281 10.2869C3.12921 10.3442 3.01535 10.4394 2.93533 10.5607C2.85532 10.682 2.81267 10.8242 2.81267 10.9695C2.81267 11.1148 2.85532 11.257 2.93533 11.3783C3.01535 11.4996 3.12921 11.5948 3.26281 11.6521L12.8187 15.7474C13.4024 15.9975 14.0308 16.1264 14.6658 16.1262H15.3371C15.972 16.1264 16.6004 15.9975 17.1841 15.7474L26.74 11.6521C26.8736 11.5948 26.9875 11.4996 27.0675 11.3783C27.1475 11.257 27.1901 11.1148 27.1901 10.9695C27.1901 10.8242 27.1475 10.682 27.0675 10.5607C26.9875 10.4394 26.8736 10.3442 26.74 10.2869L17.1841 6.19155C16.6004 5.9415 15.972 5.81263 15.3371 5.81276H14.6658C14.0308 5.81263 13.4024 5.9415 12.8187 6.19155ZM2.81276 14.5173L5.62553 15.7249V21.778C5.62555 22.4746 5.81959 23.1575 6.18591 23.75C6.55222 24.3425 7.07633 24.8213 7.69947 25.1327L9.21086 25.8884C11.0121 26.7888 12.9964 27.2627 15.0101 27.2735C17.0239 27.2842 19.0131 26.8315 20.8238 25.9503L22.5284 25.1214C23.1607 24.8138 23.6939 24.3345 24.0669 23.7383C24.4399 23.1422 24.6378 22.4531 24.6379 21.7499V15.6124L27.8482 14.2361C28.487 13.9616 29.0313 13.5059 29.4137 12.9253C29.7962 12.3447 30 11.6647 30 10.9695C30 10.2743 29.7962 9.59429 29.4137 9.01371C29.0313 8.43312 28.487 7.9774 27.8482 7.70294L18.2923 3.60568C17.3584 3.20573 16.353 2.99967 15.3371 3H14.6658C13.6498 2.99967 12.6444 3.20573 11.7105 3.60568L2.15645 7.70294C1.51739 7.9775 0.972671 8.4331 0.589472 9.01356C0.206274 9.59403 0.00135835 10.274 0 10.9695L0 19.4078C0 19.7808 0.148172 20.1385 0.41192 20.4022C0.675667 20.666 1.03339 20.8142 1.40638 20.8142C1.77938 20.8142 2.1371 20.666 2.40084 20.4022C2.66459 20.1385 2.81276 19.7808 2.81276 19.4078V14.5173ZM8.43829 21.778V16.9307L11.7105 18.3333C12.6444 18.7333 13.6498 18.9393 14.6658 18.939H15.3371C16.353 18.9393 17.3584 18.7333 18.2923 18.3333L21.8252 16.8182V21.7499C21.8252 21.926 21.7756 22.0986 21.6821 22.2478C21.5885 22.397 21.4549 22.5169 21.2964 22.5937L19.5918 23.4225C18.1692 24.1143 16.6065 24.4695 15.0246 24.4608C13.4427 24.452 11.884 24.0794 10.4691 23.3719L8.95584 22.6162C8.8003 22.5383 8.66951 22.4186 8.57811 22.2706C8.48671 22.1225 8.4383 21.952 8.43829 21.778Z" fill="#F5F5F5"/>
</svg>
