<svg width="30" height="30" viewBox="0 0 30 30" fill="none" xmlns="http://www.w3.org/2000/svg">
<path d="M2.56767 7.70833V10.8333H9.98233C10.256 10.8333 10.5185 10.7239 10.7122 10.5292L13.5118 7.70833L10.7122 4.8875C10.5185 4.69277 10.256 4.58339 9.98233 4.58333H5.66917C4.8466 4.58333 4.05772 4.91257 3.47608 5.49862C2.89443 6.08468 2.56767 6.87953 2.56767 7.70833ZM0.5 7.70833C0.5 6.327 1.04461 5.00224 2.01402 4.02549C2.98342 3.04873 4.29822 2.5 5.66917 2.5H9.98233C10.8046 2.50073 11.593 2.83045 12.1741 3.41667L15.4017 6.66667H24.2782C25.6491 6.66667 26.9639 7.2154 27.9334 8.19215C28.9028 9.1689 29.4474 10.4937 29.4474 11.875V22.2917C29.4474 23.673 28.9028 24.9978 27.9334 25.9745C26.9639 26.9513 25.6491 27.5 24.2782 27.5H5.66917C4.29822 27.5 2.98342 26.9513 2.01402 25.9745C1.04461 24.9978 0.5 23.673 0.5 22.2917V7.70833ZM2.56767 12.9167V22.2917C2.56767 23.1205 2.89443 23.9153 3.47608 24.5014C4.05772 25.0874 4.8466 25.4167 5.66917 25.4167H24.2782C25.1008 25.4167 25.8896 25.0874 26.4713 24.5014C27.0529 23.9153 27.3797 23.1205 27.3797 22.2917V11.875C27.3797 11.0462 27.0529 10.2513 26.4713 9.66529C25.8896 9.07924 25.1008 8.75 24.2782 8.75H15.4017L12.1761 12C11.8879 12.2908 11.5456 12.5214 11.1688 12.6787C10.792 12.836 10.3881 12.9169 9.98026 12.9167H2.56767Z" fill="#565656" stroke="#565656"/>
</svg>
