<svg width="17" height="17" viewBox="0 0 17 17" fill="none" xmlns="http://www.w3.org/2000/svg">
<path d="M16.0242 14.8869L16.0242 14.8868L16.0211 14.8837L14.0165 12.8802C15.1732 11.4424 15.7574 9.6239 15.6506 7.77621C15.5393 5.85151 14.6869 4.04472 13.2722 2.73496C11.8576 1.4252 9.99055 0.714279 8.063 0.751383C6.13546 0.788486 4.2972 1.57073 2.93396 2.93396C1.57073 4.2972 0.788486 6.13546 0.751383 8.063C0.714279 9.99055 1.4252 11.8576 2.73496 13.2722C4.04472 14.6869 5.85151 15.5393 7.77621 15.6506C9.62365 15.7574 11.4419 15.1734 12.8796 14.017L14.8838 16.0212L14.8837 16.0212L14.8869 16.0242C15.0386 16.1707 15.2417 16.2518 15.4526 16.25C15.6635 16.2481 15.8653 16.1635 16.0144 16.0144C16.1635 15.8653 16.2481 15.6635 16.25 15.4526C16.2518 15.2417 16.1707 15.0386 16.0242 14.8869ZM12.3416 12.3416C11.245 13.4383 9.75753 14.0544 8.2066 14.0544C6.65566 14.0544 5.16825 13.4383 4.07157 12.3416C2.97489 11.245 2.35878 9.75753 2.35878 8.2066C2.35878 6.65566 2.97489 5.16825 4.07157 4.07157C5.16825 2.97489 6.65566 2.35878 8.2066 2.35878C9.75753 2.35878 11.245 2.97489 12.3416 4.07157C13.4383 5.16825 14.0544 6.65566 14.0544 8.2066C14.0544 9.75753 13.4383 11.245 12.3416 12.3416Z" fill="#565656" stroke="#565656" stroke-width="0.5"/>
</svg>
