<svg width="30" height="30" viewBox="0 0 30 30" fill="none" xmlns="http://www.w3.org/2000/svg">
<path d="M1.5 15.9615L3.57692 6.09615C3.90144 4.40865 5.00481 3.5 6.69231 3.5H23.3077C24.9303 3.5 26.0986 4.34375 26.4231 6.09615L28.5 15.9615M1.5 15.9615V23.2308C1.5024 24.0563 1.83139 24.8473 2.41512 25.431C2.99885 26.0148 3.78987 26.3438 4.61538 26.3462H25.3846C26.2101 26.3438 27.0011 26.0148 27.5849 25.431C28.1686 24.8473 28.4976 24.0563 28.5 23.2308V15.9615M1.5 15.9615H10.8462C10.8462 17.0632 11.2838 18.1198 12.0628 18.8988C12.8418 19.6777 13.8983 20.1154 15 20.1154C16.1017 20.1154 17.1582 19.6777 17.9372 18.8988C18.7162 18.1198 19.1538 17.0632 19.1538 15.9615H28.5" stroke="#F5F5F5" stroke-width="3" stroke-linecap="round" stroke-linejoin="round"/>
</svg>
