<svg width="30" height="30" viewBox="0 0 30 30" fill="none" xmlns="http://www.w3.org/2000/svg">
<path d="M10.5 2.25H15L18 5.25H25.5C26.2956 5.25 27.0587 5.56607 27.6213 6.12868C28.1839 6.69129 28.5 7.45435 28.5 8.25V18.75C28.5 19.5456 28.1839 20.3087 27.6213 20.8713C27.0587 21.4339 26.2956 21.75 25.5 21.75H10.5C9.70434 21.75 8.94127 21.4339 8.37866 20.8713C7.81606 20.3087 7.49998 19.5456 7.49998 18.75V5.25C7.49998 4.45435 7.81606 3.69129 8.37866 3.12868C8.94127 2.56607 9.70434 2.25 10.5 2.25Z" stroke="#F5F5F5" stroke-width="2.5" stroke-linecap="round" stroke-linejoin="round"/>
<path d="M22.5 21.75V24.75C22.5 25.5456 22.1839 26.3087 21.6213 26.8713C21.0587 27.4339 20.2956 27.75 19.5 27.75H4.5C3.70435 27.75 2.94129 27.4339 2.37868 26.8713C1.81607 26.3087 1.5 25.5456 1.5 24.75V11.25C1.5 10.4544 1.81607 9.69129 2.37868 9.12868C2.94129 8.56607 3.70435 8.25 4.5 8.25H7.5" stroke="#F5F5F5" stroke-width="2.5" stroke-linecap="round" stroke-linejoin="round"/>
</svg>
