<svg width="30" height="30" viewBox="0 0 30 30" fill="none" xmlns="http://www.w3.org/2000/svg">
<path fill-rule="evenodd" clip-rule="evenodd" d="M15 20.3571H23.5714C24.4239 20.3571 25.2415 20.0185 25.8443 19.4157C26.4471 18.8129 26.7857 17.9953 26.7857 17.1429V12.8571H23.5714C21.8665 12.8571 20.2313 12.1799 19.0257 10.9743C17.8201 9.76867 17.1429 8.13354 17.1429 6.42857V3.21429H15C14.1475 3.21429 13.33 3.55293 12.7272 4.15573C12.1244 4.75853 11.7857 5.57609 11.7857 6.42857V17.1429C11.7857 17.9953 12.1244 18.8129 12.7272 19.4157C13.33 20.0185 14.1475 20.3571 15 20.3571ZM25.8429 8.96143C26.05 9.16857 26.2236 9.39572 26.3636 9.64286H23.5714C22.7189 9.64286 21.9014 9.30421 21.2986 8.70142C20.6958 8.09862 20.3571 7.28105 20.3571 6.42857V3.63643C20.6057 3.77643 20.8329 3.94929 21.0386 4.155L25.8429 8.96143ZM30 11.2329C29.9991 9.52878 29.3216 7.89479 28.1164 6.69L23.3143 1.88143C22.7168 1.28432 22.0075 0.810813 21.2269 0.487986C20.4463 0.165159 19.6097 -0.00066213 18.765 1.98697e-06H15C13.295 1.98697e-06 11.6599 0.677296 10.4543 1.88289C9.24872 3.08848 8.57143 4.72361 8.57143 6.42857H6.42857C4.72361 6.42857 3.08848 7.10587 1.88288 8.31146C0.677294 9.51705 0 11.1522 0 12.8571V23.5714C0 25.2764 0.677294 26.9115 1.88288 28.1171C3.08848 29.3227 4.72361 30 6.42857 30H15C16.705 30 18.3401 29.3227 19.5457 28.1171C20.7513 26.9115 21.4286 25.2764 21.4286 23.5714H23.5714C25.2764 23.5714 26.9115 22.8941 28.1171 21.6885C29.3227 20.483 30 18.8478 30 17.1429V11.2329ZM18.2143 23.5714H15C13.295 23.5714 11.6599 22.8941 10.4543 21.6885C9.24872 20.483 8.57143 18.8478 8.57143 17.1429V9.64286H6.42857C5.57609 9.64286 4.75852 9.98151 4.15573 10.5843C3.55293 11.1871 3.21429 12.0047 3.21429 12.8571V23.5714C3.21429 24.4239 3.55293 25.2415 4.15573 25.8443C4.75852 26.4471 5.57609 26.7857 6.42857 26.7857H15C15.8525 26.7857 16.67 26.4471 17.2728 25.8443C17.8756 25.2415 18.2143 24.4239 18.2143 23.5714Z" fill="#F5F5F5"/>
</svg>
